# xmcd
#
# Track frame offsets:
#	150
#	10196
#	21551
#	32779
#	42719
#	53427
#	62204
#	71312
#	81879
#	97617
#	108004
#	119290
#	128439
#	141032
#	150322
#	160480
#	176731
#	186058
#	197852
#	208647
#
# Disc length: 2924 seconds
#
# Revision: 0
# Processed by: cddbd v1.5.2PL0 Copyright (c) Steve Scherf et al.
# Submitted via: audiograbber 1.83.01
#
DISCID=060b6a14
DTITLE=Buck Owens - The Buck Owens Collection (1959-1990) - Disc 2
DYEAR=1992
DGENRE=Country
TTITLE0=I've Got a Tiger by the Tail
TTITLE1=Cryin' Time
TTITLE2=Memphis
TTITLE3=Before You Go
TTITLE4=Only You (Can Break My Heart)
TTITLE5=Gonna Have Love
TTITLE6=Buckaroo
TTITLE7=Waitin' In Your Welfare Line
TTITLE8=Dust on Mother's Bible
TTITLE9=Think of Me
TTITLE10=Open Up Your Heart
TTITLE11=Sam's Place
TTITLE12=Your Tender Loving Care
TTITLE13=It Takes People Like You (To Make People Like Me)
TTITLE14=How Long Will My Baby Be Gone
TTITLE15=Sweet Rosie Jones
TTITLE16=Let The World Keep On Turnin' (with Buddy Alan)
TTITLE17=I've Got You on My Mind Again
TTITLE18=Who's Gonna Mow Your Grass
TTITLE19=Johnny B. Goode
EXTD=
EXTT0=
EXTT1=
EXTT2=
EXTT3=
EXTT4=
EXTT5=
EXTT6=
EXTT7=
EXTT8=
EXTT9=
EXTT10=
EXTT11=
EXTT12=
EXTT13=
EXTT14=
EXTT15=
EXTT16=
EXTT17=
EXTT18=
EXTT19=
PLAYORDER=
